<svg width="21" height="31" viewBox="0 0 21 31" fill="none" xmlns="http://www.w3.org/2000/svg">
<path d="M20.3595 25.9497V29.7094C20.3595 29.9995 20.2443 30.2777 20.0392 30.4828C19.834 30.688 19.5558 30.8032 19.2658 30.8032C18.9757 30.8032 18.6975 30.688 18.4924 30.4828C18.2873 30.2777 18.172 29.9995 18.172 29.7094V25.9497C18.1774 24.3234 17.7271 22.7282 16.8721 21.3448C16.0172 19.9614 14.7918 18.8451 13.3349 18.1225L6.71772 14.8153C4.89667 13.9121 3.36506 12.5168 2.29651 10.7876C1.22796 9.05839 0.665194 7.06442 0.672016 5.0317V1.27193C0.672016 0.981854 0.787251 0.703654 0.992369 0.498536C1.19749 0.293418 1.47569 0.178184 1.76577 0.178184C2.05585 0.178184 2.33405 0.293418 2.53916 0.498536C2.74428 0.703654 2.85952 0.981854 2.85952 1.27193V5.0317C2.85415 6.65796 3.30446 8.2532 4.15939 9.63661C5.01433 11.02 6.2397 12.1363 7.69663 12.8588L14.3138 16.1661C16.1349 17.0693 17.6665 18.4646 18.735 20.1938C19.8036 21.923 20.3663 23.917 20.3595 25.9497ZM15.3255 24.2407H4.48784C4.3379 24.241 4.18949 24.2105 4.05184 24.1511C3.91418 24.0916 3.79022 24.0045 3.68765 23.8952C3.58508 23.7858 3.50609 23.6565 3.45559 23.5153C3.40509 23.3741 3.38415 23.2241 3.39409 23.0745C3.41859 22.7929 3.54883 22.531 3.7586 22.3415C3.96837 22.152 4.24211 22.049 4.52475 22.0532H13.4826C13.5919 22.053 13.6986 22.0202 13.789 21.9588C13.8795 21.8974 13.9494 21.8103 13.9899 21.7088C14.0304 21.6072 14.0395 21.4959 14.0161 21.3892C13.9926 21.2824 13.9378 21.1851 13.8585 21.1098C13.4073 20.6987 12.9012 20.3522 12.3546 20.0803L5.9767 16.8893C5.88864 16.8453 5.79034 16.8259 5.69216 16.8331C5.59398 16.8403 5.49957 16.8739 5.41889 16.9303C3.95079 17.9313 2.75043 19.2768 1.92288 20.8492C1.09534 22.4216 0.665855 24.1728 0.672016 25.9497V29.6725C0.667519 29.9553 0.77042 30.2292 0.959961 30.439C1.1495 30.6488 1.41157 30.779 1.69331 30.8032C1.84292 30.8131 1.99297 30.7922 2.13415 30.7417C2.27533 30.6912 2.40462 30.6122 2.51399 30.5096C2.62335 30.4071 2.71046 30.2831 2.7699 30.1454C2.82934 30.0078 2.85985 29.8594 2.85952 29.7094V27.5219H15.4376C15.5827 27.5219 15.7218 27.4643 15.8243 27.3618C15.9269 27.2592 15.9845 27.1201 15.9845 26.9751V25.9497C15.9845 25.522 15.9433 25.0953 15.8615 24.6754C15.8357 24.5524 15.7683 24.442 15.6707 24.3629C15.5731 24.2837 15.4512 24.2405 15.3255 24.2407ZM19.1933 0.178184C18.9116 0.202376 18.6495 0.33252 18.46 0.542359C18.2704 0.752198 18.1675 1.02612 18.172 1.30885V3.45943H5.59389C5.44885 3.45943 5.30975 3.51705 5.20719 3.61961C5.10463 3.72217 5.04702 3.86127 5.04702 4.00631V5.0317C5.04706 5.4594 5.08827 5.88611 5.17006 6.30592C5.19583 6.42894 5.26319 6.53933 5.3608 6.61851C5.45841 6.6977 5.58031 6.74084 5.706 6.74068H16.5068C16.789 6.73721 17.062 6.84053 17.2712 7.02994C17.4804 7.21935 17.6102 7.48084 17.6347 7.76197C17.6446 7.91158 17.6237 8.06164 17.5732 8.20282C17.5227 8.344 17.4437 8.47329 17.3412 8.58265C17.2386 8.69202 17.1146 8.77913 16.977 8.83857C16.8393 8.89801 16.6909 8.92851 16.541 8.92818H7.54897C7.43967 8.92832 7.33292 8.9612 7.24249 9.02259C7.15206 9.08398 7.0821 9.17106 7.04164 9.27259C7.00117 9.37412 6.99206 9.48545 7.01547 9.59221C7.03889 9.69897 7.09375 9.79627 7.17299 9.87154C7.62424 10.2827 8.13037 10.6291 8.6769 10.901L15.0576 14.0921C15.1456 14.1361 15.2439 14.1555 15.3421 14.1483C15.4403 14.141 15.5347 14.1074 15.6154 14.051C17.083 13.0498 18.2828 11.7041 19.1099 10.1318C19.9369 8.55939 20.366 6.80829 20.3595 5.0317V1.27193C20.3598 1.12199 20.3293 0.973589 20.2699 0.835935C20.2105 0.69828 20.1234 0.574317 20.014 0.471746C19.9046 0.369174 19.7753 0.290185 19.6342 0.239685C19.493 0.189184 19.3429 0.168251 19.1933 0.178184Z" fill="white"/>
</svg>
