<svg width="28" height="29" viewBox="0 0 28 29" fill="none" xmlns="http://www.w3.org/2000/svg">
<path d="M14.0156 0.677734C11.2838 0.677734 8.61327 1.48782 6.34182 3.00556C4.07036 4.5233 2.29998 6.68051 1.25455 9.20442C0.20911 11.7283 -0.0644238 14.5056 0.468535 17.1849C1.00149 19.8643 2.31701 22.3254 4.24872 24.2571C6.18043 26.1889 8.64158 27.5044 11.3209 28.0373C14.0003 28.5703 16.7775 28.2968 19.3014 27.2513C21.8253 26.2059 23.9826 24.4355 25.5003 22.164C27.018 19.8926 27.8281 17.2221 27.8281 14.4902C27.8239 10.8282 26.3673 7.31741 23.7779 4.72798C21.1885 2.13855 17.6776 0.681952 14.0156 0.677734ZM24.4228 9.17773H19.6881C19.0918 6.99019 18.0869 4.93527 16.7263 3.12148C18.3702 3.51637 19.9092 4.26205 21.2379 5.30739C22.5665 6.35273 23.6535 7.67301 24.4241 9.17773H24.4228ZM25.7031 14.4902C25.7041 15.5681 25.5552 16.6408 25.2609 17.6777H20.1463C20.4721 15.5652 20.4721 13.4152 20.1463 11.3027H25.2609C25.5552 12.3396 25.7041 13.4124 25.7031 14.4902ZM14.0156 3.20117C15.6066 4.90452 16.7877 6.94866 17.4688 9.17773H10.5625C11.2429 6.94836 12.424 4.90407 14.0156 3.20117ZM10.5625 19.8027H17.4688C16.7884 22.0321 15.6072 24.0764 14.0156 25.7793C12.4246 24.0759 11.2436 22.0318 10.5625 19.8027ZM10.0445 17.6777C9.67976 15.5684 9.67976 13.4121 10.0445 11.3027H17.9973C18.3621 13.4121 18.3621 15.5684 17.9973 17.6777H10.0445ZM16.7316 25.859C18.0922 24.0452 19.0971 21.9903 19.6934 19.8027H24.4295C23.6582 21.308 22.5705 22.6287 21.2408 23.6741C19.9112 24.7194 18.3711 25.4648 16.7263 25.859H16.7316Z" fill="white"/>
</svg>
