<svg width="33" height="24" viewBox="0 0 33 24" fill="none" xmlns="http://www.w3.org/2000/svg">
<path d="M31.9399 9.0293L30.0805 4.38086C29.9227 3.98735 29.6503 3.65034 29.2986 3.41352C28.947 3.1767 28.5323 3.05101 28.1083 3.05273H23.5156V1.99023C23.5156 1.70844 23.4037 1.43819 23.2044 1.23893C23.0052 1.03968 22.7349 0.927734 22.4531 0.927734H2.26562C1.70204 0.927734 1.16154 1.15162 0.763023 1.55013C0.364508 1.94865 0.140625 2.48915 0.140625 3.05273V17.9277C0.140625 18.4913 0.364508 19.0318 0.763023 19.4303C1.16154 19.8288 1.70204 20.0527 2.26562 20.0527H4.52344C4.75751 20.9669 5.28918 21.7772 6.03464 22.3559C6.7801 22.9345 7.69694 23.2486 8.64062 23.2486C9.58431 23.2486 10.5011 22.9345 11.2466 22.3559C11.9921 21.7772 12.5237 20.9669 12.7578 20.0527H19.3984C19.6325 20.9669 20.1642 21.7772 20.9096 22.3559C21.6551 22.9345 22.5719 23.2486 23.5156 23.2486C24.4593 23.2486 25.3761 22.9345 26.1216 22.3559C26.8671 21.7772 27.3987 20.9669 27.6328 20.0527H29.8906C30.4542 20.0527 30.9947 19.8288 31.3932 19.4303C31.7917 19.0318 32.0156 18.4913 32.0156 17.9277V9.42773C32.0158 9.29133 31.9901 9.15614 31.9399 9.0293ZM8.64062 21.1152C8.22034 21.1152 7.80949 20.9906 7.46004 20.7571C7.11058 20.5236 6.83822 20.1917 6.67738 19.8034C6.51654 19.4151 6.47446 18.9879 6.55646 18.5757C6.63845 18.1635 6.84084 17.7848 7.13802 17.4876C7.43521 17.1904 7.81385 16.9881 8.22606 16.9061C8.63827 16.8241 9.06553 16.8662 9.45383 17.027C9.84212 17.1878 10.174 17.4602 10.4075 17.8096C10.641 18.1591 10.7656 18.5699 10.7656 18.9902C10.7656 19.5538 10.5417 20.0943 10.1432 20.4928C9.74471 20.8913 9.20421 21.1152 8.64062 21.1152ZM2.26562 11.5527V3.05273H21.3906V11.5527H2.26562ZM23.5156 21.1152C23.0953 21.1152 22.6845 20.9906 22.335 20.7571C21.9856 20.5236 21.7132 20.1917 21.5524 19.8034C21.3915 19.4151 21.3495 18.9879 21.4315 18.5757C21.5135 18.1635 21.7158 17.7848 22.013 17.4876C22.3102 17.1904 22.6888 16.9881 23.1011 16.9061C23.5133 16.8241 23.9405 16.8662 24.3288 17.027C24.7171 17.1878 25.049 17.4602 25.2825 17.8096C25.516 18.1591 25.6406 18.5699 25.6406 18.9902C25.6406 19.5538 25.4167 20.0943 25.0182 20.4928C24.6197 20.8913 24.0792 21.1152 23.5156 21.1152ZM23.5156 8.36523V5.17773H28.1083L29.3833 8.36523H23.5156Z" fill="white"/>
</svg>
